<?xml version="1.0" encoding="UTF-8" standalone="no"?>
<!-- Created with Inkscape (http://www.inkscape.org/) -->

<svg
   width="173.23494mm"
   height="174.89764mm"
   viewBox="0 0 173.23494 174.89764"
   version="1.1"
   id="svg2310"
   inkscape:version="1.1.2 (0a00cf5339, 2022-02-04)"
   sodipodi:docname="kushka_logo_1.svg"
   xmlns:inkscape="http://www.inkscape.org/namespaces/inkscape"
   xmlns:sodipodi="http://sodipodi.sourceforge.net/DTD/sodipodi-0.dtd"
   xmlns="http://www.w3.org/2000/svg"
   xmlns:svg="http://www.w3.org/2000/svg">
  <sodipodi:namedview
     id="namedview2312"
     pagecolor="#ffffff"
     bordercolor="#666666"
     borderopacity="1.0"
     inkscape:pageshadow="2"
     inkscape:pageopacity="0.0"
     inkscape:pagecheckerboard="0"
     inkscape:document-units="mm"
     showgrid="false"
     fit-margin-top="0"
     fit-margin-left="0"
     fit-margin-right="0"
     fit-margin-bottom="0"
     inkscape:zoom="0.56899833"
     inkscape:cx="76.450137"
     inkscape:cy="234.62283"
     inkscape:window-width="1530"
     inkscape:window-height="836"
     inkscape:window-x="70"
     inkscape:window-y="27"
     inkscape:window-maximized="1"
     inkscape:current-layer="layer1" />
  <defs
     id="defs2307" />
  <g
     inkscape:label="Layer 1"
     inkscape:groupmode="layer"
     id="layer1"
     transform="translate(-40.409863,-61.24329)">
    <rect
       style="fill:#fbf1cd; stroke:none;stroke-width:0.863269;stroke-linecap:round;stroke-linejoin:round;paint-order:stroke fill markers"
       id="rect2450"
       width="173.23494"
       height="174.89764"
       x="40.409863"
       y="61.24329" />
    <path
       style="fill:none;stroke:#000000;stroke-width:4;stroke-linecap:butt;stroke-linejoin:miter;stroke-miterlimit:4;stroke-dasharray:none;stroke-opacity:1"
       d="m 87.87254,196.21095 c -9.70268,-21.31477 18.20553,-105.49288 52.45632,-87.05022 25.75668,13.86899 22.57258,66.20717 22.57258,90.29053"
       id="path900" />
    <path
       style="fill:none;stroke:#000000;stroke-width:4;stroke-linecap:butt;stroke-linejoin:miter;stroke-miterlimit:4;stroke-dasharray:none;stroke-opacity:1"
       d="m 73.84837,174.38711 c 34.06403,9.35624 69.69266,1.33645 104.21194,3.57977"
       id="path914" />
    <path
       style="fill:none;stroke:#000000;stroke-width:4;stroke-linecap:butt;stroke-linejoin:miter;stroke-miterlimit:4;stroke-dasharray:none;stroke-opacity:1"
       d="m 78.07852,146.66735 c 33.55661,0.96689 66.33073,1.20924 98.616,1.20924"
       id="path918" />
    <path
       style="fill:none;stroke:#000000;stroke-width:4;stroke-linecap:butt;stroke-linejoin:miter;stroke-miterlimit:4;stroke-dasharray:none;stroke-opacity:1"
       d="m 157.05849,107.02578 c 3.04363,-2.78119 4.86561,-6.18886 8.70849,-6.89868"
       id="path1473-3" />
    <path
       style="fill:none;stroke:#000000;stroke-width:1;stroke-linecap:butt;stroke-linejoin:miter;stroke-miterlimit:4;stroke-dasharray:none;stroke-opacity:1"
       d="m 162.91929,99.11835 c 1.32049,-2.42335 -3.43965,-5.35443 -4.74411,-2.88231 -1.12372,2.12962 0.0326,3.09432 1.31951,4.75971 0.14278,0.18477 0.59997,0.68265 0.52782,0.46057 -1.5117,-4.65345 -9.16802,-3.23114 -4.94132,0.63376 0.83225,0.76102 1.66705,1.32786 2.74605,1.29056"
       id="path1588-6" />
    <circle
       id="path1590-7"
       style="fill:#000000;stroke:none;stroke-width:0.264583"
       cx="-187.04503"
       cy="34.02961"
       r="0.39687499"
       transform="matrix(-0.91351027,-0.40681568,-0.40681568,0.91351027,0,0)" />
    <path
       style="fill:none;stroke:#000000;stroke-width:4;stroke-linecap:butt;stroke-linejoin:miter;stroke-miterlimit:4;stroke-dasharray:none;stroke-opacity:1"
       d="m 82.25955,141.75413 c -2.03304,-3.58684 -2.7105,-7.39117 -6.14481,-9.25585"
       id="path1473-5" />
    <path
       style="fill:none;stroke:#000000;stroke-width:1;stroke-linecap:butt;stroke-linejoin:miter;stroke-miterlimit:4;stroke-dasharray:none;stroke-opacity:1"
       d="m 79.13481,132.42073 c -0.50535,-2.7131 4.92837,-4.02645 5.40338,-1.27195 0.40919,2.3729 -0.989,2.9322 -2.72823,4.11737 -0.19298,0.13147 -0.78183,0.46336 -0.64448,0.27454 2.87812,-3.95681 9.71792,-0.23401 4.50232,2.13243 -1.02695,0.46597 -1.99623,0.74651 -3.01067,0.37699"
       id="path1588-3" />
    <path
       style="fill:none;stroke:#000000;stroke-width:0.8;stroke-linecap:butt;stroke-linejoin:miter;stroke-miterlimit:4;stroke-dasharray:none;stroke-opacity:1"
       d="m 79.6423,140.57281 c -2.62173,0.46656 -3.62566,1.48815 -3.62566,4.28229"
       id="path1999" />
    <path
       style="fill:none;stroke:#000000;stroke-width:0.8;stroke-linecap:butt;stroke-linejoin:miter;stroke-miterlimit:4;stroke-dasharray:none;stroke-opacity:1"
       d="m 80.60613,141.77554 c -2.2706,0.64553 -3.16497,2.46821 -3.50613,4.51516"
       id="path2001" />
    <path
       style="fill:none;stroke:#000000;stroke-width:0.8;stroke-linecap:butt;stroke-linejoin:miter;stroke-miterlimit:4;stroke-dasharray:none;stroke-opacity:1"
       d="m 76.40423,134.96579 c -1.13485,0.62984 -2.10135,1.52603 -3.24869,2.09971"
       id="path2003" />
    <path
       style="fill:none;stroke:#000000;stroke-width:0.8;stroke-linecap:butt;stroke-linejoin:miter;stroke-miterlimit:4;stroke-dasharray:none;stroke-opacity:1"
       d="m 78.91182,136.72456 c -1.64786,1.01411 -2.91614,1.94239 -4.37531,0.4832"
       id="path2005" />
  </g>
</svg>
